<mxfile host="65bd71144e">
    <diagram id="aqjlIhDvMT1yTHfBoju7" name="Page-1">
        <mxGraphModel dx="840" dy="656" grid="1" gridSize="10" guides="1" tooltips="1" connect="1" arrows="1" fold="1" page="1" pageScale="1" pageWidth="850" pageHeight="1100" math="0" shadow="0">
            <root>
                <mxCell id="0"/>
                <mxCell id="1" parent="0"/>
                <mxCell id="2" value="" style="whiteSpace=wrap;html=1;aspect=fixed;" parent="1" vertex="1">
                    <mxGeometry x="10" width="830" height="830" as="geometry"/>
                </mxCell>
                <mxCell id="3" value="Reusable Form" style="text;html=1;strokeColor=none;fillColor=none;align=center;verticalAlign=middle;whiteSpace=wrap;rounded=0;fontSize=32;" parent="1" vertex="1">
                    <mxGeometry x="10" y="10" width="830" height="30" as="geometry"/>
                </mxCell>
                <mxCell id="4" value="" style="rounded=0;whiteSpace=wrap;html=1;fontSize=32;" parent="1" vertex="1">
                    <mxGeometry x="10" y="100" width="410" height="730" as="geometry"/>
                </mxCell>
                <mxCell id="5" value="" style="rounded=0;whiteSpace=wrap;html=1;fontSize=32;" parent="1" vertex="1">
                    <mxGeometry x="420" y="100" width="420" height="730" as="geometry"/>
                </mxCell>
                <mxCell id="6" value="EditItemForm" style="text;html=1;strokeColor=none;fillColor=none;align=center;verticalAlign=middle;whiteSpace=wrap;rounded=0;fontSize=20;" vertex="1" parent="1">
                    <mxGeometry x="10" y="100" width="410" height="30" as="geometry"/>
                </mxCell>
                <mxCell id="7" value="NewItemForm" style="text;html=1;strokeColor=none;fillColor=none;align=center;verticalAlign=middle;whiteSpace=wrap;rounded=0;fontSize=20;" vertex="1" parent="1">
                    <mxGeometry x="420" y="100" width="420" height="30" as="geometry"/>
                </mxCell>
                <mxCell id="8" value="Allows the user to edit the form of an item on the homepage. The item's name, image, quantity, price, and description can all be changed in this form." style="text;html=1;strokeColor=none;fillColor=none;align=center;verticalAlign=middle;whiteSpace=wrap;rounded=0;fontSize=16;" vertex="1" parent="1">
                    <mxGeometry x="10" y="120" width="410" height="260" as="geometry"/>
                </mxCell>
                <mxCell id="10" value="Allows the user to add new items to the homepage. An item's name, image, quantity, price, and description have to be provided. If no image is provided, then it will default to a watermelon.&lt;span style=&quot;color: rgba(0, 0, 0, 0); font-family: monospace; font-size: 0px; text-align: start;&quot;&gt;%3CmxGraphModel%3E%3Croot%3E%3CmxCell%20id%3D%220%22%2F%3E%3CmxCell%20id%3D%221%22%20parent%3D%220%22%2F%3E%3CmxCell%20id%3D%222%22%20value%3D%22Allows%20the%20user%20to%20edit%20the%20form%20of%20an%20item%20on%20the%20homepage.%20The%20image%2C%20item%20quantity%2C%20price%2C%20and%20description%20can%20all%20be%20changed.%22%20style%3D%22text%3Bhtml%3D1%3BstrokeColor%3Dnone%3BfillColor%3Dnone%3Balign%3Dcenter%3BverticalAlign%3Dmiddle%3BwhiteSpace%3Dwrap%3Brounded%3D0%3BfontSize%3D16%3B%22%20vertex%3D%221%22%20parent%3D%221%22%3E%3CmxGeometry%20x%3D%2210%22%20y%3D%22140%22%20width%3D%22410%22%20height%3D%22260%22%20as%3D%22geometry%22%2F%3E%3C%2FmxCell%3E%3C%2Froot%3E%3C%2FmxGraphModel%3E&lt;/span&gt;" style="text;html=1;strokeColor=none;fillColor=none;align=center;verticalAlign=middle;whiteSpace=wrap;rounded=0;fontSize=16;" vertex="1" parent="1">
                    <mxGeometry x="420" y="130" width="420" height="260" as="geometry"/>
                </mxCell>
                <mxCell id="11" value="A form that can be used by multiple other forms to interact with the ItemList on the homepage. Right now, EditItemForm and NewItemForm use this.&amp;nbsp;" style="text;html=1;strokeColor=none;fillColor=none;align=center;verticalAlign=middle;whiteSpace=wrap;rounded=0;fontSize=16;" vertex="1" parent="1">
                    <mxGeometry x="215" y="40" width="420" height="60" as="geometry"/>
                </mxCell>
            </root>
        </mxGraphModel>
    </diagram>
</mxfile>